<svg xmlns="http://www.w3.org/2000/svg" viewBox="0 0 1280 330" width="1280" height="330" role="img" aria-label="Sky Raymond Willyus">
  <defs>
    <linearGradient id="card" x1="0" y1="0" x2="1" y2="1">
      <stop offset="0" stop-color="#0B1024"/>
      <stop offset="0.55" stop-color="#1E1B4B"/>
      <stop offset="1" stop-color="#075985"/>
    </linearGradient>
    <linearGradient id="dusk" x1="0" y1="0" x2="1" y2="0">
      <stop offset="0" stop-color="#38BDF8"/>
      <stop offset="1" stop-color="#A78BFA"/>
    </linearGradient>
    <radialGradient id="orb" cx="0.5" cy="0.5" r="0.5">
      <stop offset="0" stop-color="#7DD3FC" stop-opacity="0.45"/>
      <stop offset="0.45" stop-color="#818CF8" stop-opacity="0.20"/>
      <stop offset="1" stop-color="#818CF8" stop-opacity="0"/>
    </radialGradient>
    <clipPath id="cardClip"><rect x="8" y="8" width="1264" height="314" rx="28"/></clipPath>
  </defs>
  <rect x="8" y="8" width="1264" height="314" rx="28" fill="url(#card)"/>
  <g clip-path="url(#cardClip)">
    <circle cx="1090" cy="175" r="230" fill="url(#orb)">
      <animate attributeName="r" values="230;246;230" dur="7s" repeatCount="indefinite"/>
      <animate attributeName="opacity" values="1;0.78;1" dur="7s" repeatCount="indefinite"/>
    </circle>
    <circle cx="1090" cy="175" r="150" fill="#38BDF8" opacity="0.05"/>
    <g fill="none" stroke="url(#dusk)" stroke-linecap="round">
      <path d="M 815 95 Q 1090 120 1300 55" stroke-width="1.6" opacity="0.35"><animate attributeName="opacity" values="0.35;0.14;0.35" dur="5s" repeatCount="indefinite"/></path>
      <path d="M 845 160 Q 1120 175 1305 120" stroke-width="1.4" opacity="0.28"><animate attributeName="opacity" values="0.28;0.11;0.28" dur="6s" begin="1.2s" repeatCount="indefinite"/></path>
      <path d="M 880 235 Q 1130 220 1300 250" stroke-width="1.4" opacity="0.22"><animate attributeName="opacity" values="0.22;0.09;0.22" dur="5.5s" begin="2.4s" repeatCount="indefinite"/></path>
    </g>
    <g fill="#FFFFFF">
      <circle cx="1015" cy="95" r="1.5" opacity="0.7"><animate attributeName="opacity" values="0.7;0.2;0.7" dur="3.6s" repeatCount="indefinite"/></circle>
      <circle cx="1200" cy="130" r="1.3" opacity="0.6"><animate attributeName="opacity" values="0.6;0.2;0.6" dur="4.4s" begin="0.8s" repeatCount="indefinite"/></circle>
      <circle cx="1150" cy="245" r="1.4" opacity="0.65"><animate attributeName="opacity" values="0.65;0.2;0.65" dur="3.1s" begin="1.6s" repeatCount="indefinite"/></circle>
      <circle cx="985" cy="210" r="1.2" opacity="0.55"><animate attributeName="opacity" values="0.55;0.18;0.55" dur="4.9s" begin="0.4s" repeatCount="indefinite"/></circle>
    </g>
  </g>
  <rect x="8" y="8" width="1264" height="314" rx="28" fill="none" stroke="#FFFFFF" stroke-opacity="0.08"/>
  <rect x="64" y="52" width="792" height="226" rx="20" fill="#FFFFFF" fill-opacity="0.035"/>
  <rect x="64" y="52" width="792" height="226" rx="20" fill="none" stroke="#FFFFFF" stroke-opacity="0.09"/>
  <rect x="80" y="53" width="760" height="1" fill="#FFFFFF" opacity="0.10"/>
  <rect x="92" y="84" width="94" height="8" rx="4" fill="url(#dusk)"/>
  <text x="88" y="168" font-family="'Segoe UI','Helvetica Neue',Arial,sans-serif" font-size="55" font-weight="900" letter-spacing="-2" fill="#F8FAFC">Sky Raymond Willyus</text>
  <text x="92" y="207" font-family="'Segoe UI','Helvetica Neue',Arial,sans-serif" font-size="20" font-weight="600" fill="#B8C4DC">Software Engineer  ·  Backend Engineer  ·  Automation</text>
  <g>
    <rect x="92" y="234" width="54" height="36" rx="14" fill="#FFFFFF" fill-opacity="0.06" stroke="#FFFFFF" stroke-opacity="0.12"/>
    <g transform="translate(109,242) scale(0.8333)"><path fill="#E76F00" d="M11.915 0 11.7.215C9.515 2.4 7.47 6.39 6.046 10.483c-1.064 1.024-3.633 2.81-3.711 3.551-.093.87 1.746 2.611 1.55 3.235-.198.625-1.304 1.408-1.014 1.939.1.188.823.011 1.277-.491a13.389 13.389 0 0 0-.017 2.14c.076.906.27 1.668.643 2.232.372.563.956.911 1.667.911.397 0 .727-.114 1.024-.264.298-.149.571-.33.91-.5.68-.34 1.634-.666 3.53-.604 1.903.062 2.872.39 3.559.704.687.314 1.15.664 1.925.664.767 0 1.395-.336 1.807-.9.412-.563.631-1.33.72-2.24.06-.623.055-1.32 0-2.066.454.45 1.117.604 1.213.424.29-.53-.816-1.314-1.013-1.937-.198-.624 1.642-2.366 1.549-3.236-.08-.748-2.707-2.568-3.748-3.586C16.428 6.374 14.308 2.394 12.13.215zm.175 6.038a2.95 2.95 0 0 1 2.943 2.942 2.95 2.95 0 0 1-2.943 2.943A2.95 2.95 0 0 1 9.148 8.98a2.95 2.95 0 0 1 2.942-2.942zM8.685 7.983a3.515 3.515 0 0 0-.145.997c0 1.951 1.6 3.55 3.55 3.55 1.95 0 3.55-1.598 3.55-3.55 0-.329-.046-.648-.132-.951.334.095.64.208.915.336a42.699 42.699 0 0 1 2.042 5.829c.678 2.545 1.01 4.92.846 6.607-.082.844-.29 1.51-.606 1.94-.315.431-.713.651-1.315.651-.593 0-.932-.27-1.673-.61-.741-.338-1.825-.694-3.792-.758-1.974-.064-3.073.293-3.821.669-.375.188-.659.373-.911.5s-.466.2-.752.2c-.53 0-.876-.209-1.16-.64-.285-.43-.474-1.101-.545-1.948-.141-1.693.176-4.069.823-6.614a43.155 43.155 0 0 1 1.934-5.783c.348-.167.749-.31 1.192-.425zm-3.382 4.362a.216.216 0 0 1 .13.031c-.166.56-.323 1.116-.463 1.665a33.849 33.849 0 0 0-.547 2.555 3.9 3.9 0 0 0-.2-.39c-.58-1.012-.914-1.642-1.16-2.08.315-.24 1.679-1.755 2.24-1.781zm13.394.01c.562.027 1.926 1.543 2.24 1.783-.246.438-.58 1.068-1.16 2.08a4.428 4.428 0 0 0-.163.309 32.354 32.354 0 0 0-.562-2.49 40.579 40.579 0 0 0-.482-1.652.216.216 0 0 1 .127-.03z"/></g>
    <rect x="156" y="234" width="54" height="36" rx="14" fill="#FFFFFF" fill-opacity="0.06" stroke="#FFFFFF" stroke-opacity="0.12"/>
    <g transform="translate(173,242) scale(0.8333)"><path fill="#6DB33F" d="m23.693 10.7058-4.73-8.1844c-.4094-.7106-1.4166-1.2942-2.2402-1.2942H7.2725c-.819 0-1.8308.5836-2.2402 1.2942L.307 10.7058c-.4095.7106-.4095 1.873 0 2.5837l4.7252 8.189c.4094.7107 1.4166 1.2943 2.2402 1.2943h9.455c.819 0 1.826-.5836 2.2402-1.2942l4.7252-8.189c.4095-.7107.4095-1.8732 0-2.5838zM10.9763 5.7547c0-.5365.4377-.9742.9742-.9742s.9742.4377.9742.9742v5.8217c0 .5366-.4377.9742-.9742.9742s-.9742-.4376-.9742-.9742zm.9742 12.4294c-3.6427 0-6.6077-2.965-6.6077-6.6077.0047-2.0896.993-4.0521 2.6685-5.304a.8657.8657 0 0 1 1.2142.1788.8657.8657 0 0 1-.1788 1.2143c-2.1602 1.6048-2.612 4.6592-1.0072 6.8194 1.6049 2.1603 4.6593 2.612 6.8195 1.0072 1.2378-.9177 1.9673-2.372 1.9673-3.9157a4.8972 4.8972 0 0 0-1.9861-3.925c-.386-.2824-.466-.8284-.1836-1.2143.2824-.386.8283-.466 1.2143-.1835 1.6895 1.2471 2.6826 3.2238 2.6873 5.3228 0 3.6474-2.965 6.6077-6.6077 6.6077z"/></g>
    <rect x="220" y="234" width="54" height="36" rx="14" fill="#FFFFFF" fill-opacity="0.06" stroke="#FFFFFF" stroke-opacity="0.12"/>
    <g transform="translate(237,242) scale(0.8333)"><path fill="#FF6C37" d="M13.527.099C6.955-.744.942 3.9.099 10.473c-.843 6.572 3.8 12.584 10.373 13.428 6.573.843 12.587-3.801 13.428-10.374C24.744 6.955 20.101.943 13.527.099zm2.471 7.485a.855.855 0 0 0-.593.25l-4.453 4.453-.307-.307-.643-.643c4.389-4.376 5.18-4.418 5.996-3.753zm-4.863 4.861l4.44-4.44a.62.62 0 1 1 .847.903l-4.699 4.125-.588-.588zm.33.694l-1.1.238a.06.06 0 0 1-.067-.032.06.06 0 0 1 .01-.073l.645-.645.512.512zm-2.803-.459l1.172-1.172.879.878-1.979.426a.074.074 0 0 1-.085-.039.072.072 0 0 1 .013-.093zm-3.646 6.058a.076.076 0 0 1-.069-.083.077.077 0 0 1 .022-.046h.002l.946-.946 1.222 1.222-2.123-.147zm2.425-1.256a.228.228 0 0 0-.117.256l.203.865a.125.125 0 0 1-.211.117h-.003l-.934-.934-.294-.295 3.762-3.758 1.82-.393.874.874c-1.255 1.102-2.971 2.201-5.1 3.268zm5.279-3.428h-.002l-.839-.839 4.699-4.125a.952.952 0 0 0 .119-.127c-.148 1.345-2.029 3.245-3.977 5.091zm3.657-6.46l-.003-.002a1.822 1.822 0 0 1 2.459-2.684l-1.61 1.613a.119.119 0 0 0 0 .169l1.247 1.247a1.817 1.817 0 0 1-2.093-.343zm2.578 0a1.714 1.714 0 0 1-.271.218h-.001l-1.207-1.207 1.533-1.533c.661.72.637 1.832-.054 2.522zM18.855 6.05a.143.143 0 0 0-.053.157.416.416 0 0 1-.053.45.14.14 0 0 0 .023.197.141.141 0 0 0 .084.03.14.14 0 0 0 .106-.05.691.691 0 0 0 .087-.751.138.138 0 0 0-.194-.033z"/></g>
  </g>
</svg>
