<svg xmlns="http://www.w3.org/2000/svg" viewBox="0 0 1280 330" width="1280" height="330" role="img" aria-label="Sky Raymond Willyus">
  <defs>
    <linearGradient id="card" x1="0" y1="0" x2="1" y2="1">
      <stop offset="0" stop-color="#0B1024"/>
      <stop offset="0.55" stop-color="#1E1B4B"/>
      <stop offset="1" stop-color="#075985"/>
    </linearGradient>
    <linearGradient id="dusk" x1="0" y1="0" x2="1" y2="0">
      <stop offset="0" stop-color="#38BDF8"/>
      <stop offset="1" stop-color="#A78BFA"/>
    </linearGradient>
    <radialGradient id="orb" cx="0.5" cy="0.5" r="0.5">
      <stop offset="0" stop-color="#7DD3FC" stop-opacity="0.45"/>
      <stop offset="0.45" stop-color="#818CF8" stop-opacity="0.20"/>
      <stop offset="1" stop-color="#818CF8" stop-opacity="0"/>
    </radialGradient>
    <clipPath id="cardClip"><rect x="8" y="8" width="1264" height="314" rx="28"/></clipPath>
  </defs>
  <rect x="8" y="8" width="1264" height="314" rx="28" fill="url(#card)"/>
  <g clip-path="url(#cardClip)">
    <circle cx="1090" cy="175" r="230" fill="url(#orb)"/>
    <circle cx="1090" cy="175" r="150" fill="#38BDF8" opacity="0.05"/>
    <g fill="none" stroke="url(#dusk)" stroke-linecap="round">
      <path d="M 815 95 Q 1090 120 1300 55" stroke-width="1.6" opacity="0.35"/>
      <path d="M 845 160 Q 1120 175 1305 120" stroke-width="1.4" opacity="0.28"/>
      <path d="M 880 235 Q 1130 220 1300 250" stroke-width="1.4" opacity="0.22"/>
    </g>
  </g>
  <rect x="8" y="8" width="1264" height="314" rx="28" fill="none" stroke="#FFFFFF" stroke-opacity="0.08"/>
  <rect x="64" y="52" width="792" height="226" rx="20" fill="#FFFFFF" fill-opacity="0.035"/>
  <rect x="64" y="52" width="792" height="226" rx="20" fill="none" stroke="#FFFFFF" stroke-opacity="0.09"/>
  <rect x="80" y="53" width="760" height="1" fill="#FFFFFF" opacity="0.10"/>
  <rect x="92" y="86" width="94" height="8" rx="4" fill="url(#dusk)"/>
  <text x="90" y="170" font-family="'Segoe UI','Helvetica Neue',Helvetica,Arial,sans-serif" font-size="54" font-weight="800" letter-spacing="-1" fill="#F8FAFC">Sky Raymond Willyus</text>
  <text x="93" y="208" font-family="'Segoe UI','Helvetica Neue',Helvetica,Arial,sans-serif" font-size="20" fill="#AAB6D0">Backend Engineer  ·  Automation  ·  Product Builder</text>
  <g font-family="'Segoe UI','Helvetica Neue',Helvetica,Arial,sans-serif" font-size="14" font-weight="600" fill="#DCE3F2">
    <rect x="92" y="236" width="86" height="34" rx="17" fill="#FFFFFF" fill-opacity="0.06" stroke="#FFFFFF" stroke-opacity="0.12"/>
    <text x="135" y="258" text-anchor="middle">Java</text>
    <rect x="188" y="236" width="128" height="34" rx="17" fill="#FFFFFF" fill-opacity="0.06" stroke="#FFFFFF" stroke-opacity="0.12"/>
    <text x="252" y="258" text-anchor="middle">Spring Boot</text>
    <rect x="326" y="236" width="100" height="34" rx="17" fill="#FFFFFF" fill-opacity="0.06" stroke="#FFFFFF" stroke-opacity="0.12"/>
    <text x="376" y="258" text-anchor="middle">Python</text>
  </g>
</svg>
